<svg width="1320" height="270" viewBox="0 0 1320 270" fill="none" xmlns="http://www.w3.org/2000/svg">
<rect width="1320" height="270" fill="#F4F4F4"/>
<path d="M115.355 108.516C114.074 108.516 112.874 108.861 111.839 109.462V106.758C111.839 105.787 111.052 105 110.081 105H81.9562C80.9853 105 80.1983 105.787 80.1983 106.758V109.483C79.155 108.869 77.941 108.516 76.6455 108.516C72.7685 108.516 69.6143 111.67 69.6143 115.547C69.6143 118.504 70.4906 121.361 72.1484 123.81C74.9708 127.979 78.4511 129.061 81.331 130.213C82.9916 134.348 86.3496 137.625 90.5384 139.177L89.2422 147.422H88.9875C86.0797 147.422 83.714 149.788 83.714 152.695V161.484H81.9562C80.9854 161.484 80.1984 162.271 80.1984 163.242C80.1984 164.213 80.9854 165 81.9562 165H110.081C111.052 165 111.839 164.213 111.839 163.242C111.839 162.271 111.052 161.484 110.081 161.484H108.323V152.695C108.323 149.788 105.958 147.422 103.05 147.422H102.795L101.499 139.177C105.694 137.623 109.056 134.339 110.714 130.195C113.434 129.107 117.001 128.022 119.852 123.81C121.51 121.361 122.386 118.504 122.386 115.547C122.386 111.67 119.232 108.516 115.355 108.516ZM80.1853 125.968C75.8993 124.254 73.1299 120.163 73.1299 115.547C73.1299 113.608 74.707 112.031 76.6455 112.031C78.584 112.031 80.1611 113.608 80.1611 115.547C80.1611 115.671 80.1741 115.791 80.1984 115.907V124.336C80.1984 124.901 80.2288 125.459 80.2869 126.009L80.1853 125.968ZM104.808 161.484H87.2296V157.969H104.808V161.484ZM103.05 150.938C104.019 150.938 104.808 151.726 104.808 152.695V154.453H87.2296V152.695C87.2296 151.726 88.0182 150.938 88.9875 150.938C89.9411 150.938 100.813 150.938 103.05 150.938ZM92.801 147.422L93.9642 140.023C94.6368 140.111 95.3225 140.156 96.0187 140.156C96.7149 140.156 97.4006 140.111 98.0732 140.023L99.2364 147.422H92.801ZM108.323 124.336C108.323 131.121 102.804 136.641 96.0187 136.641C89.2339 136.641 83.714 131.121 83.714 124.336V115.547H108.323V124.336ZM108.323 112.031H83.714V108.516H108.323V112.031ZM111.815 125.968L111.752 125.993C111.809 125.448 111.839 124.896 111.839 124.336V115.547C111.839 113.608 113.416 112.031 115.355 112.031C117.293 112.031 118.87 113.608 118.87 115.547C118.87 120.163 116.101 124.254 111.815 125.968Z" fill="#242424"/>
<path d="M152.2 110.55V128H148.7V120.575H141.225V128H137.725V110.55H141.225V117.725H148.7V110.55H152.2ZM157.42 112.5C156.803 112.5 156.287 112.308 155.87 111.925C155.47 111.525 155.27 111.033 155.27 110.45C155.27 109.867 155.47 109.383 155.87 109C156.287 108.6 156.803 108.4 157.42 108.4C158.037 108.4 158.545 108.6 158.945 109C159.362 109.383 159.57 109.867 159.57 110.45C159.57 111.033 159.362 111.525 158.945 111.925C158.545 112.308 158.037 112.5 157.42 112.5ZM159.145 114.15V128H155.645V114.15H159.145ZM168.028 113.925C169.061 113.925 169.97 114.133 170.753 114.55C171.536 114.95 172.153 115.475 172.603 116.125V114.15H176.128V128.1C176.128 129.383 175.87 130.525 175.353 131.525C174.836 132.542 174.061 133.342 173.028 133.925C171.995 134.525 170.745 134.825 169.278 134.825C167.311 134.825 165.695 134.367 164.428 133.45C163.178 132.533 162.47 131.283 162.303 129.7H165.778C165.961 130.333 166.353 130.833 166.953 131.2C167.57 131.583 168.311 131.775 169.178 131.775C170.195 131.775 171.02 131.467 171.653 130.85C172.286 130.25 172.603 129.333 172.603 128.1V125.95C172.153 126.6 171.528 127.142 170.728 127.575C169.945 128.008 169.045 128.225 168.028 128.225C166.861 128.225 165.795 127.925 164.828 127.325C163.861 126.725 163.095 125.883 162.528 124.8C161.978 123.7 161.703 122.442 161.703 121.025C161.703 119.625 161.978 118.383 162.528 117.3C163.095 116.217 163.853 115.383 164.803 114.8C165.77 114.217 166.845 113.925 168.028 113.925ZM172.603 121.075C172.603 120.225 172.436 119.5 172.103 118.9C171.77 118.283 171.32 117.817 170.753 117.5C170.186 117.167 169.578 117 168.928 117C168.278 117 167.678 117.158 167.128 117.475C166.578 117.792 166.128 118.258 165.778 118.875C165.445 119.475 165.278 120.192 165.278 121.025C165.278 121.858 165.445 122.592 165.778 123.225C166.128 123.842 166.578 124.317 167.128 124.65C167.695 124.983 168.295 125.15 168.928 125.15C169.578 125.15 170.186 124.992 170.753 124.675C171.32 124.342 171.77 123.875 172.103 123.275C172.436 122.658 172.603 121.925 172.603 121.075ZM187.346 113.95C188.396 113.95 189.33 114.183 190.146 114.65C190.963 115.1 191.596 115.775 192.046 116.675C192.513 117.558 192.746 118.625 192.746 119.875V128H189.246V120.35C189.246 119.25 188.971 118.408 188.421 117.825C187.871 117.225 187.121 116.925 186.171 116.925C185.205 116.925 184.438 117.225 183.871 117.825C183.321 118.408 183.046 119.25 183.046 120.35V128H179.546V109.5H183.046V115.875C183.496 115.275 184.096 114.808 184.846 114.475C185.596 114.125 186.43 113.95 187.346 113.95ZM215.032 131.075L212.382 127.9C211.648 128.083 210.898 128.175 210.132 128.175C208.498 128.175 206.998 127.792 205.632 127.025C204.265 126.258 203.182 125.2 202.382 123.85C201.582 122.483 201.182 120.942 201.182 119.225C201.182 117.525 201.582 116 202.382 114.65C203.182 113.283 204.265 112.217 205.632 111.45C206.998 110.683 208.498 110.3 210.132 110.3C211.782 110.3 213.282 110.683 214.632 111.45C215.998 112.217 217.073 113.283 217.857 114.65C218.657 116 219.057 117.525 219.057 119.225C219.057 120.775 218.723 122.192 218.057 123.475C217.407 124.742 216.515 125.775 215.382 126.575L219.382 131.075H215.032ZM204.782 119.225C204.782 120.392 205.007 121.417 205.457 122.3C205.907 123.183 206.532 123.867 207.332 124.35C208.148 124.817 209.082 125.05 210.132 125.05C211.182 125.05 212.107 124.817 212.907 124.35C213.707 123.867 214.332 123.183 214.782 122.3C215.232 121.417 215.457 120.392 215.457 119.225C215.457 118.058 215.232 117.042 214.782 116.175C214.332 115.292 213.707 114.617 212.907 114.15C212.107 113.683 211.182 113.45 210.132 113.45C209.082 113.45 208.148 113.683 207.332 114.15C206.532 114.617 205.907 115.292 205.457 116.175C205.007 117.042 204.782 118.058 204.782 119.225ZM234.784 114.15V128H231.259V126.25C230.809 126.85 230.218 127.325 229.484 127.675C228.768 128.008 227.984 128.175 227.134 128.175C226.051 128.175 225.093 127.95 224.259 127.5C223.426 127.033 222.768 126.358 222.284 125.475C221.818 124.575 221.584 123.508 221.584 122.275V114.15H225.084V121.775C225.084 122.875 225.359 123.725 225.909 124.325C226.459 124.908 227.209 125.2 228.159 125.2C229.126 125.2 229.884 124.908 230.434 124.325C230.984 123.725 231.259 122.875 231.259 121.775V114.15H234.784ZM237.338 121.025C237.338 119.625 237.613 118.383 238.163 117.3C238.729 116.217 239.488 115.383 240.438 114.8C241.404 114.217 242.479 113.925 243.663 113.925C244.696 113.925 245.596 114.133 246.363 114.55C247.146 114.967 247.771 115.492 248.238 116.125V114.15H251.763V128H248.238V125.975C247.788 126.625 247.163 127.167 246.363 127.6C245.579 128.017 244.671 128.225 243.638 128.225C242.471 128.225 241.404 127.925 240.438 127.325C239.488 126.725 238.729 125.883 238.163 124.8C237.613 123.7 237.338 122.442 237.338 121.025ZM248.238 121.075C248.238 120.225 248.071 119.5 247.738 118.9C247.404 118.283 246.954 117.817 246.388 117.5C245.821 117.167 245.213 117 244.563 117C243.913 117 243.313 117.158 242.763 117.475C242.213 117.792 241.763 118.258 241.413 118.875C241.079 119.475 240.913 120.192 240.913 121.025C240.913 121.858 241.079 122.592 241.413 123.225C241.763 123.842 242.213 124.317 242.763 124.65C243.329 124.983 243.929 125.15 244.563 125.15C245.213 125.15 245.821 124.992 246.388 124.675C246.954 124.342 247.404 123.875 247.738 123.275C248.071 122.658 248.238 121.925 248.238 121.075ZM258.681 109.5V128H255.181V109.5H258.681ZM263.914 112.5C263.297 112.5 262.781 112.308 262.364 111.925C261.964 111.525 261.764 111.033 261.764 110.45C261.764 109.867 261.964 109.383 262.364 109C262.781 108.6 263.297 108.4 263.914 108.4C264.531 108.4 265.039 108.6 265.439 109C265.856 109.383 266.064 109.867 266.064 110.45C266.064 111.033 265.856 111.525 265.439 111.925C265.039 112.308 264.531 112.5 263.914 112.5ZM265.639 114.15V128H262.139V114.15H265.639ZM273.172 117.025V123.725C273.172 124.192 273.28 124.533 273.497 124.75C273.73 124.95 274.114 125.05 274.647 125.05H276.272V128H274.072C271.122 128 269.647 126.567 269.647 123.7V117.025H267.997V114.15H269.647V110.725H273.172V114.15H276.272V117.025H273.172ZM292.039 114.15L283.464 134.55H279.739L282.739 127.65L277.189 114.15H281.114L284.689 123.825L288.314 114.15H292.039Z" fill="#242424"/>
<path d="M136.74 156.48C136.74 155.347 136.967 154.353 137.42 153.5C137.887 152.633 138.527 151.967 139.34 151.5C140.153 151.033 141.087 150.8 142.14 150.8C143.473 150.8 144.573 151.12 145.44 151.76C146.32 152.387 146.913 153.287 147.22 154.46H144.76C144.56 153.913 144.24 153.487 143.8 153.18C143.36 152.873 142.807 152.72 142.14 152.72C141.207 152.72 140.46 153.053 139.9 153.72C139.353 154.373 139.08 155.293 139.08 156.48C139.08 157.667 139.353 158.593 139.9 159.26C140.46 159.927 141.207 160.26 142.14 160.26C143.46 160.26 144.333 159.68 144.76 158.52H147.22C146.9 159.64 146.3 160.533 145.42 161.2C144.54 161.853 143.447 162.18 142.14 162.18C141.087 162.18 140.153 161.947 139.34 161.48C138.527 161 137.887 160.333 137.42 159.48C136.967 158.613 136.74 157.613 136.74 156.48ZM151.772 152.58C152.106 152.02 152.546 151.587 153.092 151.28C153.652 150.96 154.312 150.8 155.072 150.8V153.16H154.492C153.599 153.16 152.919 153.387 152.452 153.84C151.999 154.293 151.772 155.08 151.772 156.2V162H149.492V150.98H151.772V152.58ZM156.408 156.44C156.408 155.333 156.635 154.353 157.088 153.5C157.555 152.647 158.181 151.987 158.968 151.52C159.768 151.04 160.648 150.8 161.608 150.8C162.475 150.8 163.228 150.973 163.868 151.32C164.521 151.653 165.041 152.073 165.428 152.58V150.98H167.728V162H165.428V160.36C165.041 160.88 164.515 161.313 163.848 161.66C163.181 162.007 162.421 162.18 161.568 162.18C160.621 162.18 159.755 161.94 158.968 161.46C158.181 160.967 157.555 160.287 157.088 159.42C156.635 158.54 156.408 157.547 156.408 156.44ZM165.428 156.48C165.428 155.72 165.268 155.06 164.948 154.5C164.641 153.94 164.235 153.513 163.728 153.22C163.221 152.927 162.675 152.78 162.088 152.78C161.501 152.78 160.955 152.927 160.448 153.22C159.941 153.5 159.528 153.92 159.208 154.48C158.901 155.027 158.748 155.68 158.748 156.44C158.748 157.2 158.901 157.867 159.208 158.44C159.528 159.013 159.941 159.453 160.448 159.76C160.968 160.053 161.515 160.2 162.088 160.2C162.675 160.2 163.221 160.053 163.728 159.76C164.235 159.467 164.641 159.04 164.948 158.48C165.268 157.907 165.428 157.24 165.428 156.48ZM175.343 152.84H173.303V162H171.003V152.84H169.703V150.98H171.003V150.2C171.003 148.933 171.336 148.013 172.003 147.44C172.683 146.853 173.743 146.56 175.183 146.56V148.46C174.489 148.46 174.003 148.593 173.723 148.86C173.443 149.113 173.303 149.56 173.303 150.2V150.98H175.343V152.84ZM180.023 152.84V158.94C180.023 159.353 180.117 159.653 180.303 159.84C180.503 160.013 180.837 160.1 181.303 160.1H182.703V162H180.903C179.877 162 179.09 161.76 178.543 161.28C177.997 160.8 177.723 160.02 177.723 158.94V152.84H176.423V150.98H177.723V148.24H180.023V150.98H182.703V152.84H180.023ZM194.905 156.22C194.905 156.633 194.878 157.007 194.825 157.34H186.405C186.471 158.22 186.798 158.927 187.385 159.46C187.971 159.993 188.691 160.26 189.545 160.26C190.771 160.26 191.638 159.747 192.145 158.72H194.605C194.271 159.733 193.665 160.567 192.785 161.22C191.918 161.86 190.838 162.18 189.545 162.18C188.491 162.18 187.545 161.947 186.705 161.48C185.878 161 185.225 160.333 184.745 159.48C184.278 158.613 184.045 157.613 184.045 156.48C184.045 155.347 184.271 154.353 184.725 153.5C185.191 152.633 185.838 151.967 186.665 151.5C187.505 151.033 188.465 150.8 189.545 150.8C190.585 150.8 191.511 151.027 192.325 151.48C193.138 151.933 193.771 152.573 194.225 153.4C194.678 154.213 194.905 155.153 194.905 156.22ZM192.525 155.5C192.511 154.66 192.211 153.987 191.625 153.48C191.038 152.973 190.311 152.72 189.445 152.72C188.658 152.72 187.985 152.973 187.425 153.48C186.865 153.973 186.531 154.647 186.425 155.5H192.525ZM196.388 156.44C196.388 155.333 196.615 154.353 197.068 153.5C197.535 152.647 198.162 151.987 198.948 151.52C199.748 151.04 200.635 150.8 201.608 150.8C202.328 150.8 203.035 150.96 203.728 151.28C204.435 151.587 204.995 152 205.408 152.52V147.2H207.708V162H205.408V160.34C205.035 160.873 204.515 161.313 203.848 161.66C203.195 162.007 202.442 162.18 201.588 162.18C200.628 162.18 199.748 161.94 198.948 161.46C198.162 160.967 197.535 160.287 197.068 159.42C196.615 158.54 196.388 157.547 196.388 156.44ZM205.408 156.48C205.408 155.72 205.248 155.06 204.928 154.5C204.622 153.94 204.215 153.513 203.708 153.22C203.202 152.927 202.655 152.78 202.068 152.78C201.482 152.78 200.935 152.927 200.428 153.22C199.922 153.5 199.508 153.92 199.188 154.48C198.882 155.027 198.728 155.68 198.728 156.44C198.728 157.2 198.882 157.867 199.188 158.44C199.508 159.013 199.922 159.453 200.428 159.76C200.948 160.053 201.495 160.2 202.068 160.2C202.655 160.2 203.202 160.053 203.708 159.76C204.215 159.467 204.622 159.04 204.928 158.48C205.248 157.907 205.408 157.24 205.408 156.48ZM220.518 152.84H218.478V162H216.178V152.84H214.878V150.98H216.178V150.2C216.178 148.933 216.512 148.013 217.178 147.44C217.858 146.853 218.918 146.56 220.358 146.56V148.46C219.665 148.46 219.178 148.593 218.898 148.86C218.618 149.113 218.478 149.56 218.478 150.2V150.98H220.518V152.84ZM224.819 152.58C225.152 152.02 225.592 151.587 226.139 151.28C226.699 150.96 227.359 150.8 228.119 150.8V153.16H227.539C226.646 153.16 225.966 153.387 225.499 153.84C225.046 154.293 224.819 155.08 224.819 156.2V162H222.539V150.98H224.819V152.58ZM234.995 162.18C233.955 162.18 233.015 161.947 232.175 161.48C231.335 161 230.675 160.333 230.195 159.48C229.715 158.613 229.475 157.613 229.475 156.48C229.475 155.36 229.722 154.367 230.215 153.5C230.708 152.633 231.382 151.967 232.235 151.5C233.088 151.033 234.042 150.8 235.095 150.8C236.148 150.8 237.102 151.033 237.955 151.5C238.808 151.967 239.482 152.633 239.975 153.5C240.468 154.367 240.715 155.36 240.715 156.48C240.715 157.6 240.462 158.593 239.955 159.46C239.448 160.327 238.755 161 237.875 161.48C237.008 161.947 236.048 162.18 234.995 162.18ZM234.995 160.2C235.582 160.2 236.128 160.06 236.635 159.78C237.155 159.5 237.575 159.08 237.895 158.52C238.215 157.96 238.375 157.28 238.375 156.48C238.375 155.68 238.222 155.007 237.915 154.46C237.608 153.9 237.202 153.48 236.695 153.2C236.188 152.92 235.642 152.78 235.055 152.78C234.468 152.78 233.922 152.92 233.415 153.2C232.922 153.48 232.528 153.9 232.235 154.46C231.942 155.007 231.795 155.68 231.795 156.48C231.795 157.667 232.095 158.587 232.695 159.24C233.308 159.88 234.075 160.2 234.995 160.2ZM256.309 150.8C257.175 150.8 257.949 150.98 258.629 151.34C259.322 151.7 259.862 152.233 260.249 152.94C260.649 153.647 260.849 154.5 260.849 155.5V162H258.589V155.84C258.589 154.853 258.342 154.1 257.849 153.58C257.355 153.047 256.682 152.78 255.829 152.78C254.975 152.78 254.295 153.047 253.789 153.58C253.295 154.1 253.049 154.853 253.049 155.84V162H250.789V155.84C250.789 154.853 250.542 154.1 250.049 153.58C249.555 153.047 248.882 152.78 248.029 152.78C247.175 152.78 246.495 153.047 245.989 153.58C245.495 154.1 245.249 154.853 245.249 155.84V162H242.969V150.98H245.249V152.24C245.622 151.787 246.095 151.433 246.669 151.18C247.242 150.927 247.855 150.8 248.509 150.8C249.389 150.8 250.175 150.987 250.869 151.36C251.562 151.733 252.095 152.273 252.469 152.98C252.802 152.313 253.322 151.787 254.029 151.4C254.735 151 255.495 150.8 256.309 150.8ZM271.605 152.84V158.94C271.605 159.353 271.699 159.653 271.885 159.84C272.085 160.013 272.419 160.1 272.885 160.1H274.285V162H272.485C271.459 162 270.672 161.76 270.125 161.28C269.579 160.8 269.305 160.02 269.305 158.94V152.84H268.005V150.98H269.305V148.24H271.605V150.98H274.285V152.84H271.605ZM281.167 162.18C280.127 162.18 279.187 161.947 278.347 161.48C277.507 161 276.847 160.333 276.367 159.48C275.887 158.613 275.647 157.613 275.647 156.48C275.647 155.36 275.893 154.367 276.387 153.5C276.88 152.633 277.553 151.967 278.407 151.5C279.26 151.033 280.213 150.8 281.267 150.8C282.32 150.8 283.273 151.033 284.127 151.5C284.98 151.967 285.653 152.633 286.147 153.5C286.64 154.367 286.887 155.36 286.887 156.48C286.887 157.6 286.633 158.593 286.127 159.46C285.62 160.327 284.927 161 284.047 161.48C283.18 161.947 282.22 162.18 281.167 162.18ZM281.167 160.2C281.753 160.2 282.3 160.06 282.807 159.78C283.327 159.5 283.747 159.08 284.067 158.52C284.387 157.96 284.547 157.28 284.547 156.48C284.547 155.68 284.393 155.007 284.087 154.46C283.78 153.9 283.373 153.48 282.867 153.2C282.36 152.92 281.813 152.78 281.227 152.78C280.64 152.78 280.093 152.92 279.587 153.2C279.093 153.48 278.7 153.9 278.407 154.46C278.113 155.007 277.967 155.68 277.967 156.48C277.967 157.667 278.267 158.587 278.867 159.24C279.48 159.88 280.247 160.2 281.167 160.2ZM291.421 152.6C291.807 152.093 292.334 151.667 293.001 151.32C293.667 150.973 294.421 150.8 295.261 150.8C296.221 150.8 297.094 151.04 297.881 151.52C298.681 151.987 299.307 152.647 299.761 153.5C300.214 154.353 300.441 155.333 300.441 156.44C300.441 157.547 300.214 158.54 299.761 159.42C299.307 160.287 298.681 160.967 297.881 161.46C297.094 161.94 296.221 162.18 295.261 162.18C294.421 162.18 293.674 162.013 293.021 161.68C292.367 161.333 291.834 160.907 291.421 160.4V167.24H289.141V150.98H291.421V152.6ZM298.121 156.44C298.121 155.68 297.961 155.027 297.641 154.48C297.334 153.92 296.921 153.5 296.401 153.22C295.894 152.927 295.347 152.78 294.761 152.78C294.187 152.78 293.641 152.927 293.121 153.22C292.614 153.513 292.201 153.94 291.881 154.5C291.574 155.06 291.421 155.72 291.421 156.48C291.421 157.24 291.574 157.907 291.881 158.48C292.201 159.04 292.614 159.467 293.121 159.76C293.641 160.053 294.187 160.2 294.761 160.2C295.347 160.2 295.894 160.053 296.401 159.76C296.921 159.453 297.334 159.013 297.641 158.44C297.961 157.867 298.121 157.2 298.121 156.44ZM321.231 150.8C322.097 150.8 322.871 150.98 323.551 151.34C324.244 151.7 324.784 152.233 325.171 152.94C325.571 153.647 325.771 154.5 325.771 155.5V162H323.511V155.84C323.511 154.853 323.264 154.1 322.771 153.58C322.277 153.047 321.604 152.78 320.751 152.78C319.897 152.78 319.217 153.047 318.711 153.58C318.217 154.1 317.971 154.853 317.971 155.84V162H315.711V155.84C315.711 154.853 315.464 154.1 314.971 153.58C314.477 153.047 313.804 152.78 312.951 152.78C312.097 152.78 311.417 153.047 310.911 153.58C310.417 154.1 310.171 154.853 310.171 155.84V162H307.891V150.98H310.171V152.24C310.544 151.787 311.017 151.433 311.591 151.18C312.164 150.927 312.777 150.8 313.431 150.8C314.311 150.8 315.097 150.987 315.791 151.36C316.484 151.733 317.017 152.273 317.391 152.98C317.724 152.313 318.244 151.787 318.951 151.4C319.657 151 320.417 150.8 321.231 150.8ZM327.912 156.44C327.912 155.333 328.139 154.353 328.592 153.5C329.059 152.647 329.685 151.987 330.472 151.52C331.272 151.04 332.152 150.8 333.112 150.8C333.979 150.8 334.732 150.973 335.372 151.32C336.025 151.653 336.545 152.073 336.932 152.58V150.98H339.232V162H336.932V160.36C336.545 160.88 336.019 161.313 335.352 161.66C334.685 162.007 333.925 162.18 333.072 162.18C332.125 162.18 331.259 161.94 330.472 161.46C329.685 160.967 329.059 160.287 328.592 159.42C328.139 158.54 327.912 157.547 327.912 156.44ZM336.932 156.48C336.932 155.72 336.772 155.06 336.452 154.5C336.145 153.94 335.739 153.513 335.232 153.22C334.725 152.927 334.179 152.78 333.592 152.78C333.005 152.78 332.459 152.927 331.952 153.22C331.445 153.5 331.032 153.92 330.712 154.48C330.405 155.027 330.252 155.68 330.252 156.44C330.252 157.2 330.405 157.867 330.712 158.44C331.032 159.013 331.445 159.453 331.952 159.76C332.472 160.053 333.019 160.2 333.592 160.2C334.179 160.2 334.725 160.053 335.232 159.76C335.739 159.467 336.145 159.04 336.452 158.48C336.772 157.907 336.932 157.24 336.932 156.48ZM344.887 152.84V158.94C344.887 159.353 344.98 159.653 345.167 159.84C345.367 160.013 345.7 160.1 346.167 160.1H347.567V162H345.767C344.74 162 343.953 161.76 343.407 161.28C342.86 160.8 342.587 160.02 342.587 158.94V152.84H341.287V150.98H342.587V148.24H344.887V150.98H347.567V152.84H344.887ZM359.768 156.22C359.768 156.633 359.741 157.007 359.688 157.34H351.268C351.335 158.22 351.661 158.927 352.248 159.46C352.835 159.993 353.555 160.26 354.408 160.26C355.635 160.26 356.501 159.747 357.008 158.72H359.468C359.135 159.733 358.528 160.567 357.648 161.22C356.781 161.86 355.701 162.18 354.408 162.18C353.355 162.18 352.408 161.947 351.568 161.48C350.741 161 350.088 160.333 349.608 159.48C349.141 158.613 348.908 157.613 348.908 156.48C348.908 155.347 349.135 154.353 349.588 153.5C350.055 152.633 350.701 151.967 351.528 151.5C352.368 151.033 353.328 150.8 354.408 150.8C355.448 150.8 356.375 151.027 357.188 151.48C358.001 151.933 358.635 152.573 359.088 153.4C359.541 154.213 359.768 155.153 359.768 156.22ZM357.388 155.5C357.375 154.66 357.075 153.987 356.488 153.48C355.901 152.973 355.175 152.72 354.308 152.72C353.521 152.72 352.848 152.973 352.288 153.48C351.728 153.973 351.395 154.647 351.288 155.5H357.388ZM364.292 152.58C364.625 152.02 365.065 151.587 365.612 151.28C366.172 150.96 366.832 150.8 367.592 150.8V153.16H367.012C366.118 153.16 365.438 153.387 364.972 153.84C364.518 154.293 364.292 155.08 364.292 156.2V162H362.012V150.98H364.292V152.58ZM370.848 149.52C370.434 149.52 370.088 149.38 369.808 149.1C369.528 148.82 369.388 148.473 369.388 148.06C369.388 147.647 369.528 147.3 369.808 147.02C370.088 146.74 370.434 146.6 370.848 146.6C371.248 146.6 371.588 146.74 371.868 147.02C372.148 147.3 372.288 147.647 372.288 148.06C372.288 148.473 372.148 148.82 371.868 149.1C371.588 149.38 371.248 149.52 370.848 149.52ZM371.968 150.98V162H369.688V150.98H371.968ZM374.201 156.44C374.201 155.333 374.428 154.353 374.881 153.5C375.348 152.647 375.974 151.987 376.761 151.52C377.561 151.04 378.441 150.8 379.401 150.8C380.268 150.8 381.021 150.973 381.661 151.32C382.314 151.653 382.834 152.073 383.221 152.58V150.98H385.521V162H383.221V160.36C382.834 160.88 382.308 161.313 381.641 161.66C380.974 162.007 380.214 162.18 379.361 162.18C378.414 162.18 377.548 161.94 376.761 161.46C375.974 160.967 375.348 160.287 374.881 159.42C374.428 158.54 374.201 157.547 374.201 156.44ZM383.221 156.48C383.221 155.72 383.061 155.06 382.741 154.5C382.434 153.94 382.028 153.513 381.521 153.22C381.014 152.927 380.468 152.78 379.881 152.78C379.294 152.78 378.748 152.927 378.241 153.22C377.734 153.5 377.321 153.92 377.001 154.48C376.694 155.027 376.541 155.68 376.541 156.44C376.541 157.2 376.694 157.867 377.001 158.44C377.321 159.013 377.734 159.453 378.241 159.76C378.761 160.053 379.308 160.2 379.881 160.2C380.468 160.2 381.014 160.053 381.521 159.76C382.028 159.467 382.434 159.04 382.741 158.48C383.061 157.907 383.221 157.24 383.221 156.48ZM390.796 147.2V162H388.516V147.2H390.796ZM397.789 162.18C396.922 162.18 396.142 162.027 395.449 161.72C394.769 161.4 394.229 160.973 393.829 160.44C393.429 159.893 393.216 159.287 393.189 158.62H395.549C395.589 159.087 395.809 159.48 396.209 159.8C396.622 160.107 397.136 160.26 397.749 160.26C398.389 160.26 398.882 160.14 399.229 159.9C399.589 159.647 399.769 159.327 399.769 158.94C399.769 158.527 399.569 158.22 399.169 158.02C398.782 157.82 398.162 157.6 397.309 157.36C396.482 157.133 395.809 156.913 395.289 156.7C394.769 156.487 394.316 156.16 393.929 155.72C393.556 155.28 393.369 154.7 393.369 153.98C393.369 153.393 393.542 152.86 393.889 152.38C394.236 151.887 394.729 151.5 395.369 151.22C396.022 150.94 396.769 150.8 397.609 150.8C398.862 150.8 399.869 151.12 400.629 151.76C401.402 152.387 401.816 153.247 401.869 154.34H399.589C399.549 153.847 399.349 153.453 398.989 153.16C398.629 152.867 398.142 152.72 397.529 152.72C396.929 152.72 396.469 152.833 396.149 153.06C395.829 153.287 395.669 153.587 395.669 153.96C395.669 154.253 395.776 154.5 395.989 154.7C396.202 154.9 396.462 155.06 396.769 155.18C397.076 155.287 397.529 155.427 398.129 155.6C398.929 155.813 399.582 156.033 400.089 156.26C400.609 156.473 401.056 156.793 401.429 157.22C401.802 157.647 401.996 158.213 402.009 158.92C402.009 159.547 401.836 160.107 401.489 160.6C401.142 161.093 400.649 161.48 400.009 161.76C399.382 162.04 398.642 162.18 397.789 162.18Z" fill="#898989"/>
<g clip-path="url(#clip0_13_1829)">
<path d="M591.786 126.261C590.994 123.81 591.332 120.13 589.274 117.288C587.2 114.424 583.593 113.61 581.556 112.121C579.541 110.647 577.666 107.439 574.276 106.333C570.981 105.258 567.612 106.717 565 106.717C562.388 106.717 559.02 105.257 555.724 106.333C552.335 107.439 550.458 110.647 548.444 112.12C546.41 113.608 542.8 114.424 540.726 117.288C538.67 120.127 539.004 123.815 538.214 126.261C537.462 128.589 535 131.382 535 135C535 138.62 537.459 141.403 538.214 143.739C539.006 146.191 538.668 149.871 540.726 152.712C542.8 155.576 546.407 156.39 548.444 157.88C550.459 159.354 552.334 162.561 555.724 163.668C559.017 164.742 562.391 163.284 565 163.284C567.605 163.284 570.987 164.74 574.276 163.668C577.665 162.562 579.541 159.354 581.556 157.88C583.59 156.392 587.2 155.576 589.274 152.713C591.33 149.873 590.996 146.185 591.786 143.739C592.538 141.412 595 138.618 595 135C595 131.38 592.542 128.598 591.786 126.261ZM587.326 142.298C586.403 145.154 586.645 148.351 585.477 149.963C584.295 151.596 581.187 152.342 578.789 154.096C576.417 155.831 574.755 158.58 572.821 159.211C570.992 159.808 568.012 158.596 565 158.596C561.967 158.596 559.017 159.811 557.179 159.211C555.246 158.58 553.586 155.833 551.211 154.096C548.827 152.353 545.702 151.591 544.523 149.963C543.359 148.356 543.592 145.137 542.674 142.298C541.775 139.516 539.688 137.107 539.688 135C539.688 132.891 541.774 130.49 542.674 127.702C543.597 124.846 543.355 121.649 544.523 120.037C545.705 118.405 548.815 117.657 551.211 115.904C553.591 114.164 555.242 111.421 557.178 110.789C559.006 110.193 561.996 111.404 565 111.404C568.039 111.404 570.982 110.189 572.821 110.789C574.754 111.42 576.416 114.169 578.789 115.904C581.172 117.648 584.298 118.409 585.477 120.038C586.641 121.644 586.407 124.86 587.326 127.702V127.702C588.225 130.484 590.312 132.893 590.312 135C590.312 137.109 588.226 139.51 587.326 142.298ZM575.798 127.477C576.713 128.393 576.713 129.877 575.798 130.792L564.067 142.523C563.151 143.438 561.667 143.438 560.752 142.523L554.202 135.973C553.287 135.058 553.287 133.574 554.202 132.658C555.117 131.743 556.602 131.743 557.517 132.658L562.409 137.551L572.483 127.477C573.399 126.562 574.883 126.562 575.798 127.477Z" fill="#242424"/>
</g>
<path d="M630.05 110.55L625.175 128H621.05L617.775 115.575L614.35 128L610.25 128.025L605.55 110.55H609.3L612.375 124.1L615.925 110.55H619.825L623.175 124.025L626.275 110.55H630.05ZM631.435 121.025C631.435 119.625 631.71 118.383 632.26 117.3C632.827 116.217 633.585 115.383 634.535 114.8C635.502 114.217 636.577 113.925 637.76 113.925C638.794 113.925 639.694 114.133 640.46 114.55C641.244 114.967 641.869 115.492 642.335 116.125V114.15H645.86V128H642.335V125.975C641.885 126.625 641.26 127.167 640.46 127.6C639.677 128.017 638.769 128.225 637.735 128.225C636.569 128.225 635.502 127.925 634.535 127.325C633.585 126.725 632.827 125.883 632.26 124.8C631.71 123.7 631.435 122.442 631.435 121.025ZM642.335 121.075C642.335 120.225 642.169 119.5 641.835 118.9C641.502 118.283 641.052 117.817 640.485 117.5C639.919 117.167 639.31 117 638.66 117C638.01 117 637.41 117.158 636.86 117.475C636.31 117.792 635.86 118.258 635.51 118.875C635.177 119.475 635.01 120.192 635.01 121.025C635.01 121.858 635.177 122.592 635.51 123.225C635.86 123.842 636.31 124.317 636.86 124.65C637.427 124.983 638.027 125.15 638.66 125.15C639.31 125.15 639.919 124.992 640.485 124.675C641.052 124.342 641.502 123.875 641.835 123.275C642.169 122.658 642.335 121.925 642.335 121.075ZM652.779 116.3C653.229 115.567 653.812 114.992 654.529 114.575C655.262 114.158 656.095 113.95 657.029 113.95V117.625H656.104C655.004 117.625 654.17 117.883 653.604 118.4C653.054 118.917 652.779 119.817 652.779 121.1V128H649.279V114.15H652.779V116.3ZM662.886 116.3C663.336 115.567 663.919 114.992 664.636 114.575C665.369 114.158 666.203 113.95 667.136 113.95V117.625H666.211C665.111 117.625 664.278 117.883 663.711 118.4C663.161 118.917 662.886 119.817 662.886 121.1V128H659.386V114.15H662.886V116.3ZM668.594 121.025C668.594 119.625 668.869 118.383 669.419 117.3C669.985 116.217 670.744 115.383 671.694 114.8C672.66 114.217 673.735 113.925 674.919 113.925C675.952 113.925 676.852 114.133 677.619 114.55C678.402 114.967 679.027 115.492 679.494 116.125V114.15H683.019V128H679.494V125.975C679.044 126.625 678.419 127.167 677.619 127.6C676.835 128.017 675.927 128.225 674.894 128.225C673.727 128.225 672.66 127.925 671.694 127.325C670.744 126.725 669.985 125.883 669.419 124.8C668.869 123.7 668.594 122.442 668.594 121.025ZM679.494 121.075C679.494 120.225 679.327 119.5 678.994 118.9C678.66 118.283 678.21 117.817 677.644 117.5C677.077 117.167 676.469 117 675.819 117C675.169 117 674.569 117.158 674.019 117.475C673.469 117.792 673.019 118.258 672.669 118.875C672.335 119.475 672.169 120.192 672.169 121.025C672.169 121.858 672.335 122.592 672.669 123.225C673.019 123.842 673.469 124.317 674.019 124.65C674.585 124.983 675.185 125.15 675.819 125.15C676.469 125.15 677.077 124.992 677.644 124.675C678.21 124.342 678.66 123.875 678.994 123.275C679.327 122.658 679.494 121.925 679.494 121.075ZM694.112 113.95C695.762 113.95 697.095 114.475 698.112 115.525C699.129 116.558 699.637 118.008 699.637 119.875V128H696.137V120.35C696.137 119.25 695.862 118.408 695.312 117.825C694.762 117.225 694.012 116.925 693.062 116.925C692.095 116.925 691.329 117.225 690.762 117.825C690.212 118.408 689.937 119.25 689.937 120.35V128H686.437V114.15H689.937V115.875C690.404 115.275 690.995 114.808 691.712 114.475C692.445 114.125 693.245 113.95 694.112 113.95ZM707.04 117.025V123.725C707.04 124.192 707.149 124.533 707.365 124.75C707.599 124.95 707.982 125.05 708.515 125.05H710.14V128H707.94C704.99 128 703.515 126.567 703.515 123.7V117.025H701.865V114.15H703.515V110.725H707.04V114.15H710.14V117.025H707.04ZM725.908 114.15L717.333 134.55H713.608L716.608 127.65L711.058 114.15H714.983L718.558 123.825L722.183 114.15H725.908ZM746.476 115.95C746.476 116.883 746.251 117.758 745.801 118.575C745.368 119.392 744.676 120.05 743.726 120.55C742.793 121.05 741.61 121.3 740.176 121.3H737.251V128H733.751V110.55H740.176C741.526 110.55 742.676 110.783 743.626 111.25C744.576 111.717 745.285 112.358 745.751 113.175C746.235 113.992 746.476 114.917 746.476 115.95ZM740.026 118.475C740.993 118.475 741.71 118.258 742.176 117.825C742.643 117.375 742.876 116.75 742.876 115.95C742.876 114.25 741.926 113.4 740.026 113.4H737.251V118.475H740.026ZM752.461 116.3C752.911 115.567 753.495 114.992 754.211 114.575C754.945 114.158 755.778 113.95 756.711 113.95V117.625H755.786C754.686 117.625 753.853 117.883 753.286 118.4C752.736 118.917 752.461 119.817 752.461 121.1V128H748.961V114.15H752.461V116.3ZM765.219 128.225C763.885 128.225 762.685 127.933 761.619 127.35C760.552 126.75 759.71 125.908 759.094 124.825C758.494 123.742 758.194 122.492 758.194 121.075C758.194 119.658 758.502 118.408 759.119 117.325C759.752 116.242 760.61 115.408 761.694 114.825C762.777 114.225 763.985 113.925 765.319 113.925C766.652 113.925 767.86 114.225 768.944 114.825C770.027 115.408 770.877 116.242 771.494 117.325C772.127 118.408 772.444 119.658 772.444 121.075C772.444 122.492 772.119 123.742 771.469 124.825C770.835 125.908 769.969 126.75 768.869 127.35C767.785 127.933 766.569 128.225 765.219 128.225ZM765.219 125.175C765.852 125.175 766.444 125.025 766.994 124.725C767.56 124.408 768.01 123.942 768.344 123.325C768.677 122.708 768.844 121.958 768.844 121.075C768.844 119.758 768.494 118.75 767.794 118.05C767.11 117.333 766.269 116.975 765.269 116.975C764.269 116.975 763.427 117.333 762.744 118.05C762.077 118.75 761.744 119.758 761.744 121.075C761.744 122.392 762.069 123.408 762.719 124.125C763.385 124.825 764.219 125.175 765.219 125.175ZM779.086 117.025V123.725C779.086 124.192 779.194 124.533 779.411 124.75C779.644 124.95 780.028 125.05 780.561 125.05H782.186V128H779.986C777.036 128 775.561 126.567 775.561 123.7V117.025H773.911V114.15H775.561V110.725H779.086V114.15H782.186V117.025H779.086ZM797.579 120.775C797.579 121.275 797.545 121.725 797.479 122.125H787.354C787.437 123.125 787.787 123.908 788.404 124.475C789.02 125.042 789.779 125.325 790.679 125.325C791.979 125.325 792.904 124.767 793.454 123.65H797.229C796.829 124.983 796.062 126.083 794.929 126.95C793.795 127.8 792.404 128.225 790.754 128.225C789.42 128.225 788.22 127.933 787.154 127.35C786.104 126.75 785.279 125.908 784.679 124.825C784.095 123.742 783.804 122.492 783.804 121.075C783.804 119.642 784.095 118.383 784.679 117.3C785.262 116.217 786.079 115.383 787.129 114.8C788.179 114.217 789.387 113.925 790.754 113.925C792.07 113.925 793.245 114.208 794.279 114.775C795.329 115.342 796.137 116.15 796.704 117.2C797.287 118.233 797.579 119.425 797.579 120.775ZM793.954 119.775C793.937 118.875 793.612 118.158 792.979 117.625C792.345 117.075 791.57 116.8 790.654 116.8C789.787 116.8 789.054 117.067 788.454 117.6C787.87 118.117 787.512 118.842 787.379 119.775H793.954ZM799.233 121.075C799.233 119.642 799.525 118.392 800.108 117.325C800.692 116.242 801.5 115.408 802.533 114.825C803.567 114.225 804.75 113.925 806.083 113.925C807.8 113.925 809.217 114.358 810.333 115.225C811.467 116.075 812.225 117.275 812.608 118.825H808.833C808.633 118.225 808.292 117.758 807.808 117.425C807.342 117.075 806.758 116.9 806.058 116.9C805.058 116.9 804.267 117.267 803.683 118C803.1 118.717 802.808 119.742 802.808 121.075C802.808 122.392 803.1 123.417 803.683 124.15C804.267 124.867 805.058 125.225 806.058 125.225C807.475 125.225 808.4 124.592 808.833 123.325H812.608C812.225 124.825 811.467 126.017 810.333 126.9C809.2 127.783 807.783 128.225 806.083 128.225C804.75 128.225 803.567 127.933 802.533 127.35C801.5 126.75 800.692 125.917 800.108 124.85C799.525 123.767 799.233 122.508 799.233 121.075ZM819.247 117.025V123.725C819.247 124.192 819.356 124.533 819.572 124.75C819.806 124.95 820.189 125.05 820.722 125.05H822.347V128H820.147C817.197 128 815.722 126.567 815.722 123.7V117.025H814.072V114.15H815.722V110.725H819.247V114.15H822.347V117.025H819.247ZM826.64 112.5C826.023 112.5 825.506 112.308 825.09 111.925C824.69 111.525 824.49 111.033 824.49 110.45C824.49 109.867 824.69 109.383 825.09 109C825.506 108.6 826.023 108.4 826.64 108.4C827.256 108.4 827.765 108.6 828.165 109C828.581 109.383 828.79 109.867 828.79 110.45C828.79 111.033 828.581 111.525 828.165 111.925C827.765 112.308 827.256 112.5 826.64 112.5ZM828.365 114.15V128H824.865V114.15H828.365ZM837.973 128.225C836.639 128.225 835.439 127.933 834.373 127.35C833.306 126.75 832.464 125.908 831.848 124.825C831.248 123.742 830.948 122.492 830.948 121.075C830.948 119.658 831.256 118.408 831.873 117.325C832.506 116.242 833.364 115.408 834.448 114.825C835.531 114.225 836.739 113.925 838.073 113.925C839.406 113.925 840.614 114.225 841.698 114.825C842.781 115.408 843.631 116.242 844.248 117.325C844.881 118.408 845.198 119.658 845.198 121.075C845.198 122.492 844.873 123.742 844.223 124.825C843.589 125.908 842.723 126.75 841.623 127.35C840.539 127.933 839.323 128.225 837.973 128.225ZM837.973 125.175C838.606 125.175 839.198 125.025 839.748 124.725C840.314 124.408 840.764 123.942 841.098 123.325C841.431 122.708 841.598 121.958 841.598 121.075C841.598 119.758 841.248 118.75 840.548 118.05C839.864 117.333 839.023 116.975 838.023 116.975C837.023 116.975 836.181 117.333 835.498 118.05C834.831 118.75 834.498 119.758 834.498 121.075C834.498 122.392 834.823 123.408 835.473 124.125C836.139 124.825 836.973 125.175 837.973 125.175ZM855.44 113.95C857.09 113.95 858.423 114.475 859.44 115.525C860.457 116.558 860.965 118.008 860.965 119.875V128H857.465V120.35C857.465 119.25 857.19 118.408 856.64 117.825C856.09 117.225 855.34 116.925 854.39 116.925C853.423 116.925 852.657 117.225 852.09 117.825C851.54 118.408 851.265 119.25 851.265 120.35V128H847.765V114.15H851.265V115.875C851.732 115.275 852.323 114.808 853.04 114.475C853.773 114.125 854.573 113.95 855.44 113.95Z" fill="#242424"/>
<path d="M612.84 162.14C611.547 162.14 610.353 161.84 609.26 161.24C608.18 160.627 607.32 159.78 606.68 158.7C606.053 157.607 605.74 156.38 605.74 155.02C605.74 153.66 606.053 152.44 606.68 151.36C607.32 150.28 608.18 149.44 609.26 148.84C610.353 148.227 611.547 147.92 612.84 147.92C614.147 147.92 615.34 148.227 616.42 148.84C617.513 149.44 618.373 150.28 619 151.36C619.627 152.44 619.94 153.66 619.94 155.02C619.94 156.38 619.627 157.607 619 158.7C618.373 159.78 617.513 160.627 616.42 161.24C615.34 161.84 614.147 162.14 612.84 162.14ZM612.84 160.16C613.76 160.16 614.58 159.953 615.3 159.54C616.02 159.113 616.58 158.513 616.98 157.74C617.393 156.953 617.6 156.047 617.6 155.02C617.6 153.993 617.393 153.093 616.98 152.32C616.58 151.547 616.02 150.953 615.3 150.54C614.58 150.127 613.76 149.92 612.84 149.92C611.92 149.92 611.1 150.127 610.38 150.54C609.66 150.953 609.093 151.547 608.68 152.32C608.28 153.093 608.08 153.993 608.08 155.02C608.08 156.047 608.28 156.953 608.68 157.74C609.093 158.513 609.66 159.113 610.38 159.54C611.1 159.953 611.92 160.16 612.84 160.16ZM626.444 159.96L629.564 150.98H631.984L627.784 162H625.064L620.884 150.98H623.324L626.444 159.96ZM643.807 156.22C643.807 156.633 643.78 157.007 643.727 157.34H635.307C635.374 158.22 635.7 158.927 636.287 159.46C636.874 159.993 637.594 160.26 638.447 160.26C639.674 160.26 640.54 159.747 641.047 158.72H643.507C643.174 159.733 642.567 160.567 641.687 161.22C640.82 161.86 639.74 162.18 638.447 162.18C637.394 162.18 636.447 161.947 635.607 161.48C634.78 161 634.127 160.333 633.647 159.48C633.18 158.613 632.947 157.613 632.947 156.48C632.947 155.347 633.174 154.353 633.627 153.5C634.094 152.633 634.74 151.967 635.567 151.5C636.407 151.033 637.367 150.8 638.447 150.8C639.487 150.8 640.414 151.027 641.227 151.48C642.04 151.933 642.674 152.573 643.127 153.4C643.58 154.213 643.807 155.153 643.807 156.22ZM641.427 155.5C641.414 154.66 641.114 153.987 640.527 153.48C639.94 152.973 639.214 152.72 638.347 152.72C637.56 152.72 636.887 152.973 636.327 153.48C635.767 153.973 635.434 154.647 635.327 155.5H641.427ZM648.331 152.58C648.664 152.02 649.104 151.587 649.651 151.28C650.211 150.96 650.871 150.8 651.631 150.8V153.16H651.051C650.157 153.16 649.477 153.387 649.011 153.84C648.557 154.293 648.331 155.08 648.331 156.2V162H646.051V150.98H648.331V152.58ZM659.882 158.9C661.162 157.793 662.169 156.887 662.902 156.18C663.649 155.46 664.269 154.713 664.762 153.94C665.255 153.167 665.502 152.393 665.502 151.62C665.502 150.82 665.309 150.193 664.922 149.74C664.549 149.287 663.955 149.06 663.142 149.06C662.355 149.06 661.742 149.313 661.302 149.82C660.875 150.313 660.649 150.98 660.622 151.82H658.422C658.462 150.3 658.915 149.14 659.782 148.34C660.662 147.527 661.775 147.12 663.122 147.12C664.575 147.12 665.709 147.52 666.522 148.32C667.349 149.12 667.762 150.187 667.762 151.52C667.762 152.48 667.515 153.407 667.022 154.3C666.542 155.18 665.962 155.973 665.282 156.68C664.615 157.373 663.762 158.18 662.722 159.1L661.822 159.9H668.162V161.8H658.442V160.14L659.882 158.9ZM685.58 150.98L678.82 167.18H676.46L678.7 161.82L674.36 150.98H676.9L680 159.38L683.22 150.98H685.58ZM697.401 156.22C697.401 156.633 697.374 157.007 697.321 157.34H688.901C688.967 158.22 689.294 158.927 689.881 159.46C690.467 159.993 691.187 160.26 692.041 160.26C693.267 160.26 694.134 159.747 694.641 158.72H697.101C696.767 159.733 696.161 160.567 695.281 161.22C694.414 161.86 693.334 162.18 692.041 162.18C690.987 162.18 690.041 161.947 689.201 161.48C688.374 161 687.721 160.333 687.241 159.48C686.774 158.613 686.541 157.613 686.541 156.48C686.541 155.347 686.767 154.353 687.221 153.5C687.687 152.633 688.334 151.967 689.161 151.5C690.001 151.033 690.961 150.8 692.041 150.8C693.081 150.8 694.007 151.027 694.821 151.48C695.634 151.933 696.267 152.573 696.721 153.4C697.174 154.213 697.401 155.153 697.401 156.22ZM695.021 155.5C695.007 154.66 694.707 153.987 694.121 153.48C693.534 152.973 692.807 152.72 691.941 152.72C691.154 152.72 690.481 152.973 689.921 153.48C689.361 153.973 689.027 154.647 688.921 155.5H695.021ZM698.885 156.44C698.885 155.333 699.111 154.353 699.565 153.5C700.031 152.647 700.658 151.987 701.445 151.52C702.245 151.04 703.125 150.8 704.085 150.8C704.951 150.8 705.705 150.973 706.345 151.32C706.998 151.653 707.518 152.073 707.905 152.58V150.98H710.205V162H707.905V160.36C707.518 160.88 706.991 161.313 706.325 161.66C705.658 162.007 704.898 162.18 704.045 162.18C703.098 162.18 702.231 161.94 701.445 161.46C700.658 160.967 700.031 160.287 699.565 159.42C699.111 158.54 698.885 157.547 698.885 156.44ZM707.905 156.48C707.905 155.72 707.745 155.06 707.425 154.5C707.118 153.94 706.711 153.513 706.205 153.22C705.698 152.927 705.151 152.78 704.565 152.78C703.978 152.78 703.431 152.927 702.925 153.22C702.418 153.5 702.005 153.92 701.685 154.48C701.378 155.027 701.225 155.68 701.225 156.44C701.225 157.2 701.378 157.867 701.685 158.44C702.005 159.013 702.418 159.453 702.925 159.76C703.445 160.053 703.991 160.2 704.565 160.2C705.151 160.2 705.698 160.053 706.205 159.76C706.711 159.467 707.118 159.04 707.425 158.48C707.745 157.907 707.905 157.24 707.905 156.48ZM715.479 152.58C715.813 152.02 716.253 151.587 716.799 151.28C717.359 150.96 718.019 150.8 718.779 150.8V153.16H718.199C717.306 153.16 716.626 153.387 716.159 153.84C715.706 154.293 715.479 155.08 715.479 156.2V162H713.199V150.98H715.479V152.58ZM724.875 162.18C724.008 162.18 723.228 162.027 722.535 161.72C721.855 161.4 721.315 160.973 720.915 160.44C720.515 159.893 720.302 159.287 720.275 158.62H722.635C722.675 159.087 722.895 159.48 723.295 159.8C723.708 160.107 724.222 160.26 724.835 160.26C725.475 160.26 725.968 160.14 726.315 159.9C726.675 159.647 726.855 159.327 726.855 158.94C726.855 158.527 726.655 158.22 726.255 158.02C725.868 157.82 725.248 157.6 724.395 157.36C723.568 157.133 722.895 156.913 722.375 156.7C721.855 156.487 721.402 156.16 721.015 155.72C720.642 155.28 720.455 154.7 720.455 153.98C720.455 153.393 720.628 152.86 720.975 152.38C721.322 151.887 721.815 151.5 722.455 151.22C723.108 150.94 723.855 150.8 724.695 150.8C725.948 150.8 726.955 151.12 727.715 151.76C728.488 152.387 728.902 153.247 728.955 154.34H726.675C726.635 153.847 726.435 153.453 726.075 153.16C725.715 152.867 725.228 152.72 724.615 152.72C724.015 152.72 723.555 152.833 723.235 153.06C722.915 153.287 722.755 153.587 722.755 153.96C722.755 154.253 722.862 154.5 723.075 154.7C723.288 154.9 723.548 155.06 723.855 155.18C724.162 155.287 724.615 155.427 725.215 155.6C726.015 155.813 726.668 156.033 727.175 156.26C727.695 156.473 728.142 156.793 728.515 157.22C728.888 157.647 729.082 158.213 729.095 158.92C729.095 159.547 728.922 160.107 728.575 160.6C728.228 161.093 727.735 161.48 727.095 161.76C726.468 162.04 725.728 162.18 724.875 162.18Z" fill="#898989"/>
<g clip-path="url(#clip1_13_1829)">
<path d="M1049.69 128.963C1049.3 115.682 1038.37 105 1025 105C1011.63 105 1000.7 115.682 1000.31 128.963L998.529 130.74V142.79L1000.29 144.554V152.765C1000.29 157.565 1004.2 161.471 1009 161.471H1011.19C1011.91 163.525 1013.88 165 1016.18 165H1019.71C1022.01 165 1023.97 163.522 1024.7 161.466C1024.8 161.468 1024.9 161.471 1025 161.471C1033.52 161.471 1040.65 155.398 1042.29 147.353H1046.91L1051.47 142.79V130.74L1049.69 128.963ZM1025 108.529C1035.47 108.529 1044.2 116.174 1045.88 126.176H1042.29C1040.65 118.131 1033.52 112.059 1025 112.059C1016.48 112.059 1009.35 118.131 1007.71 126.176H1004.12C1005.8 116.174 1014.53 108.529 1025 108.529ZM1038.67 126.176C1032.97 126.159 1028.94 126.507 1025.61 121.651L1024 119.293L1022.62 121.791C1020.6 125.431 1017.87 126.176 1014.41 126.176H1011.33C1012.9 120.094 1018.43 115.588 1025 115.588C1031.57 115.588 1037.1 120.094 1038.67 126.176ZM1007.35 143.823H1004.55L1002.06 141.328V132.201L1004.55 129.706H1007.35V143.823ZM1003.82 152.765V147.353H1007.7C1008.37 150.644 1009.96 153.665 1012.31 156.092C1011.82 156.619 1011.43 157.247 1011.19 157.941H1009C1006.15 157.941 1003.82 155.619 1003.82 152.765ZM1019.71 161.471H1016.18C1015.2 161.471 1014.41 160.679 1014.41 159.706C1014.41 158.733 1015.2 157.941 1016.18 157.941H1019.71C1020.68 157.941 1021.47 158.733 1021.47 159.706C1021.47 160.679 1020.68 161.471 1019.71 161.471ZM1039.12 143.823C1039.12 151.608 1032.78 157.941 1025 157.941C1024.9 157.941 1024.8 157.939 1024.69 157.937C1023.97 155.885 1022 154.412 1019.71 154.412C1016.08 154.42 1016.14 154.394 1015.69 154.435C1012.62 151.75 1010.88 147.925 1010.88 143.823V129.706H1014.41C1017.53 129.706 1021.34 129.191 1024.28 125.608C1028.17 129.679 1032.91 129.706 1037.18 129.706H1039.12V143.823ZM1047.94 141.328L1045.45 143.823H1042.65V129.706H1045.45L1047.94 132.201V141.328Z" fill="#242424"/>
</g>
<path d="M1067.43 124.05C1069.03 122.717 1070.3 121.608 1071.25 120.725C1072.2 119.825 1072.99 118.892 1073.63 117.925C1074.26 116.958 1074.58 116.008 1074.58 115.075C1074.58 114.225 1074.38 113.558 1073.98 113.075C1073.58 112.592 1072.96 112.35 1072.13 112.35C1071.29 112.35 1070.65 112.633 1070.2 113.2C1069.75 113.75 1069.52 114.508 1069.5 115.475H1066.1C1066.17 113.475 1066.76 111.958 1067.88 110.925C1069.01 109.892 1070.44 109.375 1072.18 109.375C1074.08 109.375 1075.53 109.883 1076.55 110.9C1077.57 111.9 1078.08 113.225 1078.08 114.875C1078.08 116.175 1077.73 117.417 1077.03 118.6C1076.33 119.783 1075.53 120.817 1074.63 121.7C1073.73 122.567 1072.55 123.617 1071.1 124.85H1078.48V127.75H1066.13V125.15L1067.43 124.05ZM1080.53 124.45V121.7L1088.71 110H1092.78V121.4H1094.98V124.45H1092.78V128H1089.28V124.45H1080.53ZM1089.51 113.75L1084.38 121.4H1089.51V113.75ZM1112.94 104.325L1106.19 132.525H1102.77L1109.52 104.325H1112.94ZM1132.88 112.425L1126.23 128H1122.68L1129.38 112.825H1120.83V109.825H1132.88V112.425ZM1147.36 128.175C1146.14 128.175 1145.04 127.967 1144.06 127.55C1143.09 127.133 1142.33 126.533 1141.76 125.75C1141.19 124.967 1140.9 124.042 1140.88 122.975H1144.63C1144.68 123.692 1144.93 124.258 1145.38 124.675C1145.85 125.092 1146.48 125.3 1147.28 125.3C1148.1 125.3 1148.74 125.108 1149.21 124.725C1149.68 124.325 1149.91 123.808 1149.91 123.175C1149.91 122.658 1149.75 122.233 1149.43 121.9C1149.12 121.567 1148.72 121.308 1148.23 121.125C1147.77 120.925 1147.12 120.708 1146.28 120.475C1145.15 120.142 1144.23 119.817 1143.51 119.5C1142.81 119.167 1142.2 118.675 1141.68 118.025C1141.18 117.358 1140.93 116.475 1140.93 115.375C1140.93 114.342 1141.19 113.442 1141.71 112.675C1142.23 111.908 1142.95 111.325 1143.88 110.925C1144.82 110.508 1145.88 110.3 1147.08 110.3C1148.88 110.3 1150.34 110.742 1151.46 111.625C1152.59 112.492 1153.22 113.708 1153.33 115.275H1149.48C1149.45 114.675 1149.19 114.183 1148.71 113.8C1148.24 113.4 1147.62 113.2 1146.83 113.2C1146.15 113.2 1145.6 113.375 1145.18 113.725C1144.78 114.075 1144.58 114.583 1144.58 115.25C1144.58 115.717 1144.73 116.108 1145.03 116.425C1145.35 116.725 1145.73 116.975 1146.18 117.175C1146.65 117.358 1147.3 117.575 1148.13 117.825C1149.27 118.158 1150.19 118.492 1150.91 118.825C1151.63 119.158 1152.24 119.658 1152.76 120.325C1153.28 120.992 1153.53 121.867 1153.53 122.95C1153.53 123.883 1153.29 124.75 1152.81 125.55C1152.33 126.35 1151.62 126.992 1150.68 127.475C1149.75 127.942 1148.64 128.175 1147.36 128.175ZM1169.64 114.15V128H1166.12V126.25C1165.67 126.85 1165.08 127.325 1164.34 127.675C1163.63 128.008 1162.84 128.175 1161.99 128.175C1160.91 128.175 1159.95 127.95 1159.12 127.5C1158.29 127.033 1157.63 126.358 1157.14 125.475C1156.68 124.575 1156.44 123.508 1156.44 122.275V114.15H1159.94V121.775C1159.94 122.875 1160.22 123.725 1160.77 124.325C1161.32 124.908 1162.07 125.2 1163.02 125.2C1163.99 125.2 1164.74 124.908 1165.29 124.325C1165.84 123.725 1166.12 122.875 1166.12 121.775V114.15H1169.64ZM1176.6 116.15C1177.05 115.517 1177.66 114.992 1178.45 114.575C1179.25 114.142 1180.16 113.925 1181.17 113.925C1182.36 113.925 1183.42 114.217 1184.37 114.8C1185.34 115.383 1186.1 116.217 1186.65 117.3C1187.21 118.367 1187.5 119.608 1187.5 121.025C1187.5 122.442 1187.21 123.7 1186.65 124.8C1186.1 125.883 1185.34 126.725 1184.37 127.325C1183.42 127.925 1182.36 128.225 1181.17 128.225C1180.16 128.225 1179.26 128.017 1178.47 127.6C1177.71 127.183 1177.08 126.658 1176.6 126.025V134.6H1173.1V114.15H1176.6V116.15ZM1183.92 121.025C1183.92 120.192 1183.75 119.475 1183.4 118.875C1183.06 118.258 1182.61 117.792 1182.05 117.475C1181.5 117.158 1180.9 117 1180.25 117C1179.61 117 1179.01 117.167 1178.45 117.5C1177.9 117.817 1177.45 118.283 1177.1 118.9C1176.76 119.517 1176.6 120.242 1176.6 121.075C1176.6 121.908 1176.76 122.633 1177.1 123.25C1177.45 123.867 1177.9 124.342 1178.45 124.675C1179.01 124.992 1179.61 125.15 1180.25 125.15C1180.9 125.15 1181.5 124.983 1182.05 124.65C1182.61 124.317 1183.06 123.842 1183.4 123.225C1183.75 122.608 1183.92 121.875 1183.92 121.025ZM1193.54 116.15C1193.99 115.517 1194.61 114.992 1195.39 114.575C1196.19 114.142 1197.1 113.925 1198.12 113.925C1199.3 113.925 1200.37 114.217 1201.32 114.8C1202.28 115.383 1203.04 116.217 1203.59 117.3C1204.16 118.367 1204.44 119.608 1204.44 121.025C1204.44 122.442 1204.16 123.7 1203.59 124.8C1203.04 125.883 1202.28 126.725 1201.32 127.325C1200.37 127.925 1199.3 128.225 1198.12 128.225C1197.1 128.225 1196.2 128.017 1195.42 127.6C1194.65 127.183 1194.02 126.658 1193.54 126.025V134.6H1190.04V114.15H1193.54V116.15ZM1200.87 121.025C1200.87 120.192 1200.69 119.475 1200.34 118.875C1200.01 118.258 1199.56 117.792 1198.99 117.475C1198.44 117.158 1197.84 117 1197.19 117C1196.56 117 1195.96 117.167 1195.39 117.5C1194.84 117.817 1194.39 118.283 1194.04 118.9C1193.71 119.517 1193.54 120.242 1193.54 121.075C1193.54 121.908 1193.71 122.633 1194.04 123.25C1194.39 123.867 1194.84 124.342 1195.39 124.675C1195.96 124.992 1196.56 125.15 1197.19 125.15C1197.84 125.15 1198.44 124.983 1198.99 124.65C1199.56 124.317 1200.01 123.842 1200.34 123.225C1200.69 122.608 1200.87 121.875 1200.87 121.025ZM1213.13 128.225C1211.8 128.225 1210.6 127.933 1209.53 127.35C1208.47 126.75 1207.63 125.908 1207.01 124.825C1206.41 123.742 1206.11 122.492 1206.11 121.075C1206.11 119.658 1206.42 118.408 1207.03 117.325C1207.67 116.242 1208.53 115.408 1209.61 114.825C1210.69 114.225 1211.9 113.925 1213.23 113.925C1214.57 113.925 1215.78 114.225 1216.86 114.825C1217.94 115.408 1218.79 116.242 1219.41 117.325C1220.04 118.408 1220.36 119.658 1220.36 121.075C1220.36 122.492 1220.03 123.742 1219.38 124.825C1218.75 125.908 1217.88 126.75 1216.78 127.35C1215.7 127.933 1214.48 128.225 1213.13 128.225ZM1213.13 125.175C1213.77 125.175 1214.36 125.025 1214.91 124.725C1215.48 124.408 1215.93 123.942 1216.26 123.325C1216.59 122.708 1216.76 121.958 1216.76 121.075C1216.76 119.758 1216.41 118.75 1215.71 118.05C1215.03 117.333 1214.18 116.975 1213.18 116.975C1212.18 116.975 1211.34 117.333 1210.66 118.05C1209.99 118.75 1209.66 119.758 1209.66 121.075C1209.66 122.392 1209.98 123.408 1210.63 124.125C1211.3 124.825 1212.13 125.175 1213.13 125.175ZM1226.43 116.3C1226.88 115.567 1227.46 114.992 1228.18 114.575C1228.91 114.158 1229.74 113.95 1230.68 113.95V117.625H1229.75C1228.65 117.625 1227.82 117.883 1227.25 118.4C1226.7 118.917 1226.43 119.817 1226.43 121.1V128H1222.93V114.15H1226.43V116.3ZM1237.11 117.025V123.725C1237.11 124.192 1237.22 124.533 1237.43 124.75C1237.67 124.95 1238.05 125.05 1238.58 125.05H1240.21V128H1238.01C1235.06 128 1233.58 126.567 1233.58 123.7V117.025H1231.93V114.15H1233.58V110.725H1237.11V114.15H1240.21V117.025H1237.11Z" fill="#242424"/>
<path d="M1071.04 148.1C1072.52 148.1 1073.81 148.387 1074.92 148.96C1076.04 149.52 1076.9 150.333 1077.5 151.4C1078.11 152.453 1078.42 153.687 1078.42 155.1C1078.42 156.513 1078.11 157.74 1077.5 158.78C1076.9 159.82 1076.04 160.62 1074.92 161.18C1073.81 161.727 1072.52 162 1071.04 162H1066.5V148.1H1071.04ZM1071.04 160.14C1072.67 160.14 1073.91 159.7 1074.78 158.82C1075.65 157.94 1076.08 156.7 1076.08 155.1C1076.08 153.487 1075.65 152.227 1074.78 151.32C1073.91 150.413 1072.67 149.96 1071.04 149.96H1068.78V160.14H1071.04ZM1090.78 156.22C1090.78 156.633 1090.75 157.007 1090.7 157.34H1082.28C1082.35 158.22 1082.67 158.927 1083.26 159.46C1083.85 159.993 1084.57 160.26 1085.42 160.26C1086.65 160.26 1087.51 159.747 1088.02 158.72H1090.48C1090.15 159.733 1089.54 160.567 1088.66 161.22C1087.79 161.86 1086.71 162.18 1085.42 162.18C1084.37 162.18 1083.42 161.947 1082.58 161.48C1081.75 161 1081.1 160.333 1080.62 159.48C1080.15 158.613 1079.92 157.613 1079.92 156.48C1079.92 155.347 1080.15 154.353 1080.6 153.5C1081.07 152.633 1081.71 151.967 1082.54 151.5C1083.38 151.033 1084.34 150.8 1085.42 150.8C1086.46 150.8 1087.39 151.027 1088.2 151.48C1089.01 151.933 1089.65 152.573 1090.1 153.4C1090.55 154.213 1090.78 155.153 1090.78 156.22ZM1088.4 155.5C1088.39 154.66 1088.09 153.987 1087.5 153.48C1086.91 152.973 1086.19 152.72 1085.32 152.72C1084.53 152.72 1083.86 152.973 1083.3 153.48C1082.74 153.973 1082.41 154.647 1082.3 155.5H1088.4ZM1092.26 156.44C1092.26 155.333 1092.49 154.353 1092.94 153.5C1093.41 152.647 1094.04 151.987 1094.82 151.52C1095.62 151.04 1096.51 150.8 1097.48 150.8C1098.2 150.8 1098.91 150.96 1099.6 151.28C1100.31 151.587 1100.87 152 1101.28 152.52V147.2H1103.58V162H1101.28V160.34C1100.91 160.873 1100.39 161.313 1099.72 161.66C1099.07 162.007 1098.32 162.18 1097.46 162.18C1096.5 162.18 1095.62 161.94 1094.82 161.46C1094.04 160.967 1093.41 160.287 1092.94 159.42C1092.49 158.54 1092.26 157.547 1092.26 156.44ZM1101.28 156.48C1101.28 155.72 1101.12 155.06 1100.8 154.5C1100.5 153.94 1100.09 153.513 1099.58 153.22C1099.08 152.927 1098.53 152.78 1097.94 152.78C1097.36 152.78 1096.81 152.927 1096.3 153.22C1095.8 153.5 1095.38 153.92 1095.06 154.48C1094.76 155.027 1094.6 155.68 1094.6 156.44C1094.6 157.2 1094.76 157.867 1095.06 158.44C1095.38 159.013 1095.8 159.453 1096.3 159.76C1096.82 160.053 1097.37 160.2 1097.94 160.2C1098.53 160.2 1099.08 160.053 1099.58 159.76C1100.09 159.467 1100.5 159.04 1100.8 158.48C1101.12 157.907 1101.28 157.24 1101.28 156.48ZM1107.74 149.52C1107.32 149.52 1106.98 149.38 1106.7 149.1C1106.42 148.82 1106.28 148.473 1106.28 148.06C1106.28 147.647 1106.42 147.3 1106.7 147.02C1106.98 146.74 1107.32 146.6 1107.74 146.6C1108.14 146.6 1108.48 146.74 1108.76 147.02C1109.04 147.3 1109.18 147.647 1109.18 148.06C1109.18 148.473 1109.04 148.82 1108.76 149.1C1108.48 149.38 1108.14 149.52 1107.74 149.52ZM1108.86 150.98V162H1106.58V150.98H1108.86ZM1111.09 156.48C1111.09 155.347 1111.32 154.353 1111.77 153.5C1112.24 152.633 1112.88 151.967 1113.69 151.5C1114.5 151.033 1115.44 150.8 1116.49 150.8C1117.82 150.8 1118.92 151.12 1119.79 151.76C1120.67 152.387 1121.26 153.287 1121.57 154.46H1119.11C1118.91 153.913 1118.59 153.487 1118.15 153.18C1117.71 152.873 1117.16 152.72 1116.49 152.72C1115.56 152.72 1114.81 153.053 1114.25 153.72C1113.7 154.373 1113.43 155.293 1113.43 156.48C1113.43 157.667 1113.7 158.593 1114.25 159.26C1114.81 159.927 1115.56 160.26 1116.49 160.26C1117.81 160.26 1118.68 159.68 1119.11 158.52H1121.57C1121.25 159.64 1120.65 160.533 1119.77 161.2C1118.89 161.853 1117.8 162.18 1116.49 162.18C1115.44 162.18 1114.5 161.947 1113.69 161.48C1112.88 161 1112.24 160.333 1111.77 159.48C1111.32 158.613 1111.09 157.613 1111.09 156.48ZM1123.08 156.44C1123.08 155.333 1123.31 154.353 1123.76 153.5C1124.23 152.647 1124.86 151.987 1125.64 151.52C1126.44 151.04 1127.32 150.8 1128.28 150.8C1129.15 150.8 1129.9 150.973 1130.54 151.32C1131.2 151.653 1131.72 152.073 1132.1 152.58V150.98H1134.4V162H1132.1V160.36C1131.72 160.88 1131.19 161.313 1130.52 161.66C1129.86 162.007 1129.1 162.18 1128.24 162.18C1127.3 162.18 1126.43 161.94 1125.64 161.46C1124.86 160.967 1124.23 160.287 1123.76 159.42C1123.31 158.54 1123.08 157.547 1123.08 156.44ZM1132.1 156.48C1132.1 155.72 1131.94 155.06 1131.62 154.5C1131.32 153.94 1130.91 153.513 1130.4 153.22C1129.9 152.927 1129.35 152.78 1128.76 152.78C1128.18 152.78 1127.63 152.927 1127.12 153.22C1126.62 153.5 1126.2 153.92 1125.88 154.48C1125.58 155.027 1125.42 155.68 1125.42 156.44C1125.42 157.2 1125.58 157.867 1125.88 158.44C1126.2 159.013 1126.62 159.453 1127.12 159.76C1127.64 160.053 1128.19 160.2 1128.76 160.2C1129.35 160.2 1129.9 160.053 1130.4 159.76C1130.91 159.467 1131.32 159.04 1131.62 158.48C1131.94 157.907 1132.1 157.24 1132.1 156.48ZM1140.06 152.84V158.94C1140.06 159.353 1140.15 159.653 1140.34 159.84C1140.54 160.013 1140.87 160.1 1141.34 160.1H1142.74V162H1140.94C1139.91 162 1139.13 161.76 1138.58 161.28C1138.03 160.8 1137.76 160.02 1137.76 158.94V152.84H1136.46V150.98H1137.76V148.24H1140.06V150.98H1142.74V152.84H1140.06ZM1154.94 156.22C1154.94 156.633 1154.91 157.007 1154.86 157.34H1146.44C1146.51 158.22 1146.83 158.927 1147.42 159.46C1148.01 159.993 1148.73 160.26 1149.58 160.26C1150.81 160.26 1151.67 159.747 1152.18 158.72H1154.64C1154.31 159.733 1153.7 160.567 1152.82 161.22C1151.95 161.86 1150.87 162.18 1149.58 162.18C1148.53 162.18 1147.58 161.947 1146.74 161.48C1145.91 161 1145.26 160.333 1144.78 159.48C1144.31 158.613 1144.08 157.613 1144.08 156.48C1144.08 155.347 1144.31 154.353 1144.76 153.5C1145.23 152.633 1145.87 151.967 1146.7 151.5C1147.54 151.033 1148.5 150.8 1149.58 150.8C1150.62 150.8 1151.55 151.027 1152.36 151.48C1153.17 151.933 1153.81 152.573 1154.26 153.4C1154.71 154.213 1154.94 155.153 1154.94 156.22ZM1152.56 155.5C1152.55 154.66 1152.25 153.987 1151.66 153.48C1151.07 152.973 1150.35 152.72 1149.48 152.72C1148.69 152.72 1148.02 152.973 1147.46 153.48C1146.9 153.973 1146.57 154.647 1146.46 155.5H1152.56ZM1156.42 156.44C1156.42 155.333 1156.65 154.353 1157.1 153.5C1157.57 152.647 1158.2 151.987 1158.98 151.52C1159.78 151.04 1160.67 150.8 1161.64 150.8C1162.36 150.8 1163.07 150.96 1163.76 151.28C1164.47 151.587 1165.03 152 1165.44 152.52V147.2H1167.74V162H1165.44V160.34C1165.07 160.873 1164.55 161.313 1163.88 161.66C1163.23 162.007 1162.48 162.18 1161.62 162.18C1160.66 162.18 1159.78 161.94 1158.98 161.46C1158.2 160.967 1157.57 160.287 1157.1 159.42C1156.65 158.54 1156.42 157.547 1156.42 156.44ZM1165.44 156.48C1165.44 155.72 1165.28 155.06 1164.96 154.5C1164.66 153.94 1164.25 153.513 1163.74 153.22C1163.24 152.927 1162.69 152.78 1162.1 152.78C1161.52 152.78 1160.97 152.927 1160.46 153.22C1159.96 153.5 1159.54 153.92 1159.22 154.48C1158.92 155.027 1158.76 155.68 1158.76 156.44C1158.76 157.2 1158.92 157.867 1159.22 158.44C1159.54 159.013 1159.96 159.453 1160.46 159.76C1160.98 160.053 1161.53 160.2 1162.1 160.2C1162.69 160.2 1163.24 160.053 1163.74 159.76C1164.25 159.467 1164.66 159.04 1164.96 158.48C1165.28 157.907 1165.44 157.24 1165.44 156.48ZM1179.93 162.18C1179.07 162.18 1178.29 162.027 1177.59 161.72C1176.91 161.4 1176.37 160.973 1175.97 160.44C1175.57 159.893 1175.36 159.287 1175.33 158.62H1177.69C1177.73 159.087 1177.95 159.48 1178.35 159.8C1178.77 160.107 1179.28 160.26 1179.89 160.26C1180.53 160.26 1181.03 160.14 1181.37 159.9C1181.73 159.647 1181.91 159.327 1181.91 158.94C1181.91 158.527 1181.71 158.22 1181.31 158.02C1180.93 157.82 1180.31 157.6 1179.45 157.36C1178.63 157.133 1177.95 156.913 1177.43 156.7C1176.91 156.487 1176.46 156.16 1176.07 155.72C1175.7 155.28 1175.51 154.7 1175.51 153.98C1175.51 153.393 1175.69 152.86 1176.03 152.38C1176.38 151.887 1176.87 151.5 1177.51 151.22C1178.17 150.94 1178.91 150.8 1179.75 150.8C1181.01 150.8 1182.01 151.12 1182.77 151.76C1183.55 152.387 1183.96 153.247 1184.01 154.34H1181.73C1181.69 153.847 1181.49 153.453 1181.13 153.16C1180.77 152.867 1180.29 152.72 1179.67 152.72C1179.07 152.72 1178.61 152.833 1178.29 153.06C1177.97 153.287 1177.81 153.587 1177.81 153.96C1177.81 154.253 1177.92 154.5 1178.13 154.7C1178.35 154.9 1178.61 155.06 1178.91 155.18C1179.22 155.287 1179.67 155.427 1180.27 155.6C1181.07 155.813 1181.73 156.033 1182.23 156.26C1182.75 156.473 1183.2 156.793 1183.57 157.22C1183.95 157.647 1184.14 158.213 1184.15 158.92C1184.15 159.547 1183.98 160.107 1183.63 160.6C1183.29 161.093 1182.79 161.48 1182.15 161.76C1181.53 162.04 1180.79 162.18 1179.93 162.18ZM1196.6 150.98V162H1194.32V160.7C1193.96 161.153 1193.48 161.513 1192.9 161.78C1192.32 162.033 1191.71 162.16 1191.06 162.16C1190.19 162.16 1189.41 161.98 1188.72 161.62C1188.04 161.26 1187.5 160.727 1187.1 160.02C1186.71 159.313 1186.52 158.46 1186.52 157.46V150.98H1188.78V157.12C1188.78 158.107 1189.02 158.867 1189.52 159.4C1190.01 159.92 1190.68 160.18 1191.54 160.18C1192.39 160.18 1193.06 159.92 1193.56 159.4C1194.06 158.867 1194.32 158.107 1194.32 157.12V150.98H1196.6ZM1201.89 152.6C1202.27 152.093 1202.8 151.667 1203.47 151.32C1204.13 150.973 1204.89 150.8 1205.73 150.8C1206.69 150.8 1207.56 151.04 1208.35 151.52C1209.15 151.987 1209.77 152.647 1210.23 153.5C1210.68 154.353 1210.91 155.333 1210.91 156.44C1210.91 157.547 1210.68 158.54 1210.23 159.42C1209.77 160.287 1209.15 160.967 1208.35 161.46C1207.56 161.94 1206.69 162.18 1205.73 162.18C1204.89 162.18 1204.14 162.013 1203.49 161.68C1202.83 161.333 1202.3 160.907 1201.89 160.4V167.24H1199.61V150.98H1201.89V152.6ZM1208.59 156.44C1208.59 155.68 1208.43 155.027 1208.11 154.48C1207.8 153.92 1207.39 153.5 1206.87 153.22C1206.36 152.927 1205.81 152.78 1205.23 152.78C1204.65 152.78 1204.11 152.927 1203.59 153.22C1203.08 153.513 1202.67 153.94 1202.35 154.5C1202.04 155.06 1201.89 155.72 1201.89 156.48C1201.89 157.24 1202.04 157.907 1202.35 158.48C1202.67 159.04 1203.08 159.467 1203.59 159.76C1204.11 160.053 1204.65 160.2 1205.23 160.2C1205.81 160.2 1206.36 160.053 1206.87 159.76C1207.39 159.453 1207.8 159.013 1208.11 158.44C1208.43 157.867 1208.59 157.2 1208.59 156.44ZM1215.44 152.6C1215.83 152.093 1216.35 151.667 1217.02 151.32C1217.69 150.973 1218.44 150.8 1219.28 150.8C1220.24 150.8 1221.11 151.04 1221.9 151.52C1222.7 151.987 1223.33 152.647 1223.78 153.5C1224.23 154.353 1224.46 155.333 1224.46 156.44C1224.46 157.547 1224.23 158.54 1223.78 159.42C1223.33 160.287 1222.7 160.967 1221.9 161.46C1221.11 161.94 1220.24 162.18 1219.28 162.18C1218.44 162.18 1217.69 162.013 1217.04 161.68C1216.39 161.333 1215.85 160.907 1215.44 160.4V167.24H1213.16V150.98H1215.44V152.6ZM1222.14 156.44C1222.14 155.68 1221.98 155.027 1221.66 154.48C1221.35 153.92 1220.94 153.5 1220.42 153.22C1219.91 152.927 1219.37 152.78 1218.78 152.78C1218.21 152.78 1217.66 152.927 1217.14 153.22C1216.63 153.513 1216.22 153.94 1215.9 154.5C1215.59 155.06 1215.44 155.72 1215.44 156.48C1215.44 157.24 1215.59 157.907 1215.9 158.48C1216.22 159.04 1216.63 159.467 1217.14 159.76C1217.66 160.053 1218.21 160.2 1218.78 160.2C1219.37 160.2 1219.91 160.053 1220.42 159.76C1220.94 159.453 1221.35 159.013 1221.66 158.44C1221.98 157.867 1222.14 157.2 1222.14 156.44ZM1231.49 162.18C1230.45 162.18 1229.51 161.947 1228.67 161.48C1227.83 161 1227.17 160.333 1226.69 159.48C1226.21 158.613 1225.97 157.613 1225.97 156.48C1225.97 155.36 1226.22 154.367 1226.71 153.5C1227.21 152.633 1227.88 151.967 1228.73 151.5C1229.59 151.033 1230.54 150.8 1231.59 150.8C1232.65 150.8 1233.6 151.033 1234.45 151.5C1235.31 151.967 1235.98 152.633 1236.47 153.5C1236.97 154.367 1237.21 155.36 1237.21 156.48C1237.21 157.6 1236.96 158.593 1236.45 159.46C1235.95 160.327 1235.25 161 1234.37 161.48C1233.51 161.947 1232.55 162.18 1231.49 162.18ZM1231.49 160.2C1232.08 160.2 1232.63 160.06 1233.13 159.78C1233.65 159.5 1234.07 159.08 1234.39 158.52C1234.71 157.96 1234.87 157.28 1234.87 156.48C1234.87 155.68 1234.72 155.007 1234.41 154.46C1234.11 153.9 1233.7 153.48 1233.19 153.2C1232.69 152.92 1232.14 152.78 1231.55 152.78C1230.97 152.78 1230.42 152.92 1229.91 153.2C1229.42 153.48 1229.03 153.9 1228.73 154.46C1228.44 155.007 1228.29 155.68 1228.29 156.48C1228.29 157.667 1228.59 158.587 1229.19 159.24C1229.81 159.88 1230.57 160.2 1231.49 160.2ZM1241.75 152.58C1242.08 152.02 1242.52 151.587 1243.07 151.28C1243.63 150.96 1244.29 150.8 1245.05 150.8V153.16H1244.47C1243.58 153.16 1242.9 153.387 1242.43 153.84C1241.98 154.293 1241.75 155.08 1241.75 156.2V162H1239.47V150.98H1241.75V152.58ZM1249.8 152.84V158.94C1249.8 159.353 1249.9 159.653 1250.08 159.84C1250.28 160.013 1250.62 160.1 1251.08 160.1H1252.48V162H1250.68C1249.66 162 1248.87 161.76 1248.32 161.28C1247.78 160.8 1247.5 160.02 1247.5 158.94V152.84H1246.2V150.98H1247.5V148.24H1249.8V150.98H1252.48V152.84H1249.8Z" fill="#898989"/>
<defs>
<clipPath id="clip0_13_1829">
<rect width="60" height="60" fill="white" transform="translate(535 105)"/>
</clipPath>
<clipPath id="clip1_13_1829">
<rect width="60" height="60" fill="white" transform="translate(995 105)"/>
</clipPath>
</defs>
</svg>
